<svg viewBox="0 0 48 48" xmlns="http://www.w3.org/2000/svg"><g fill="none" stroke="#000" stroke-linecap="round" stroke-linejoin="round"><path d="m40.1549 28.8318-20.9867-20.9867c-3.1268-3.1268-8.1963-3.1268-11.3231 0-3.1268 3.1268-3.1268 8.1963 0 11.3231l20.9867 20.9867c3.1268 3.1268 8.1963 3.1268 11.3231 0 3.1268-3.1268 3.1268-8.1963 0-11.3231z"/><path d="m35.3231 24 4.8318-4.8318c3.1268-3.1268 3.1268-8.1963 0-11.3231-3.1268-3.1268-8.1963-3.1268-11.3231 0l-4.8472 4.8472"/><path d="m12.6769 24-4.8318 4.8318c-3.1268 3.1268-3.1268 8.1963 0 11.3231 3.1268 3.1268 8.1963 3.1268 11.3231 0l4.8164-4.8164"/><circle cx="34.3451" cy="34.494" r="4"/></g></svg>